SplineFontDB: 3.0
FontName: Amatoro
FullName: Amatoro
FamilyName: Amatoro
Weight: Medium
Copyright: Copyright (c) 2011 Barry Schwartz
UComments: "Scan 11-pt Baskerville at 6400x6400 dpi.+AAoA-Cut samples 978 pixels high; import them without scaling." 
Version: 0.1
ItalicAngle: 0
UnderlinePosition: -100
UnderlineWidth: 50
Ascent: 680
Descent: 320
LayerCount: 3
Layer: 0 0 "Back"  1
Layer: 1 0 "Fore"  0
Layer: 2 0 "backup"  0
XUID: [1021 658 797806517 1669643]
FSType: 8
OS2Version: 0
OS2_WeightWidthSlopeOnly: 0
OS2_UseTypoMetrics: 1
CreationTime: 1297644581
ModificationTime: 1297923115
PfmFamily: 17
TTFWeight: 500
TTFWidth: 5
LineGap: 90
VLineGap: 0
OS2TypoAscent: 0
OS2TypoAOffset: 1
OS2TypoDescent: 0
OS2TypoDOffset: 1
OS2TypoLinegap: 90
OS2WinAscent: 0
OS2WinAOffset: 1
OS2WinDescent: 0
OS2WinDOffset: 1
HheadAscent: 0
HheadAOffset: 1
HheadDescent: 0
HheadDOffset: 1
OS2Vendor: 'PfEd'
MarkAttachClasses: 1
DEI: 91125
LangName: 1033 
Encoding: UnicodeBmp
UnicodeInterp: none
NameList: Adobe Glyph List
DisplaySize: -48
AntiAlias: 1
FitToEm: 1
WinInfo: 72 12 6
BeginPrivate: 9
BlueValues 23 [-22 0 401 430 656 667]
BlueScale 5 0.036
BlueShift 1 7
BlueFuzz 1 0
StemSnapH 33 [20 25 31 36 41 46 72 76 104 144]
StemSnapV 33 [49 58 68 72 76 80 86 95 104 144]
StdHW 4 [31]
StdVW 4 [72]
OtherBlues 11 [-239 -227]
EndPrivate
BeginChars: 65536 53

StartChar: a
Encoding: 97 97 0
Width: 498
VWidth: 0
Flags: WO
HStem: -13 46<143.481 258.524 397.251 450.925> 391 31<175.426 294.551>
VStem: 41 87<48.5213 139.545> 68 81<309.496 372.751> 319 80<71.6172 236.996 263.966 374.786>
LayerCount: 3
Fore
SplineSet
144 407 m 0xd8
 175 418 209 422 248 422 c 0
 366 422 399 377 399 310 c 0
 399 273 393 99 393 76 c 0
 393 48 406 33 421 33 c 0
 449 33 449 65 464 65 c 0
 473 65 481 57 481 52 c 0
 481 21 444 -13 405 -13 c 0
 332 -13 327 41 317 41 c 0
 307 41 244 -16 160 -16 c 0
 88 -16 41 18 41 85 c 0xe8
 41 170 188 231 294 263 c 0
 319 270 319 274 320 293 c 1
 320 344 318 391 239 391 c 0
 210 391 158 383 149 339 c 0
 146 323 125 300 100 300 c 0
 79 300 68 318 68 331 c 0
 68 369 113 396 144 407 c 0xd8
195 33 m 0
 253 33 316 81 316 90 c 0
 317 134 319 201 319 217 c 0
 319 232 317 237 309 237 c 0
 304 237 289 233 281 230 c 0
 220 211 128 171 128 103 c 0
 128 49 165 33 195 33 c 0
EndSplineSet
Layer: 2
SplineSet
393 76 m 4
 393 48 406 33 421 33 c 4
 449 33 449 65 464 65 c 4
 473 65 481 57 481 52 c 4
 481 21 444 -13 405 -13 c 4
 332 -13 327 41 317 41 c 4
 307 41 244 -16 160 -16 c 4
 88 -16 41 18 41 85 c 4
 41 170 188 232 294 264 c 4
 315 270 322 272 322 290 c 4
 322 364 295 395 232 395 c 4
 114 395 175 300 103 300 c 4
 83 300 70 314 70 336 c 4
 70 396 151 429 236 429 c 4
 336 429 398 393 398 312 c 4
 398 219 393 99 393 76 c 4
195 33 m 4
 253 33 318 83 318 92 c 4
 319 136 322 207 322 220 c 4
 322 234 316 238 308 238 c 4
 299 238 289 233 281 230 c 4
 220 211 128 171 128 103 c 4
 128 49 165 33 195 33 c 4
EndSplineSet
EndChar

StartChar: b
Encoding: 98 98 1
Width: 522
VWidth: 0
Flags: W
HStem: -22 43<197.673 332.704> 389 34<203.902 333.772> 621 29<7.00308 53.9389> 647 20G<128 134>
VStem: 66 74<73.6611 331.601 372.59 614.841> 407 86<108.424 308.957>
LayerCount: 3
Fore
SplineSet
294 -22 m 0xdc
 178 -22 143 47 134 47 c 0
 115 47 104 -18 78 -18 c 0
 62 -18 59 0 59 14 c 0
 59 40 66 122 66 554 c 0
 66 600 59 621 15 621 c 0
 8 621 7 629 7 635 c 0
 7 641 8 650 14 650 c 0xec
 62 650 124 667 132 667 c 0
 136 667 147 666 147 653 c 0
 147 632 140 587 140 384 c 0
 140 371 142 364 152 373 c 0
 183 401 225 423 287 423 c 0
 400 423 493 336 493 216 c 0
 493 89 410 -22 294 -22 c 0xdc
407 202 m 0
 407 304 364 389 270 389 c 0
 170 389 138 315 138 222 c 0
 138 173 141 119 143 110 c 0
 151 66 210 21 266 21 c 0
 347 21 407 100 407 202 c 0
EndSplineSet
Layer: 2
SplineSet
294 -22 m 4
 178 -22 143 47 134 47 c 4
 115 47 104 -18 78 -18 c 4
 62 -18 59 0 59 14 c 4xf4
 59 40 66 122 66 554 c 4
 66 600 59 621 15 621 c 4
 8 621 7 629 7 635 c 4xec
 7 641 8 650 14 650 c 4
 62 650 124 667 132 667 c 4
 136 667 147 666 147 653 c 4
 147 632 140 587 140 384 c 4
 140 371 142 364 152 373 c 4
 183 401 225 423 287 423 c 4
 400 423 493 336 493 216 c 4
 493 89 410 -22 294 -22 c 4
407 202 m 4
 407 304 364 389 270 389 c 4
 170 389 138 315 138 222 c 4
 138 173 141 119 143 110 c 4
 151 66 210 18 266 18 c 4
 347 18 407 100 407 202 c 4
7 634 m 0xec
 7 640 9 649 15 649 c 0
 76 654 127 667 135 667 c 0
 139 667 145 666 145 657 c 0
 145 627 141 583 141 384 c 0
 141 371 142 365 152 373 c 0
 184 399 225 423 287 423 c 0
 401 423 493 336 493 212 c 0
 493 86 409 -22 291 -22 c 0
 190 -22 152 43 138 43 c 0
 112 43 104 -18 78 -18 c 0
 62 -18 59 0 59 14 c 0xf4
 59 40 66 122 66 554 c 0
 66 600 58 621 17 621 c 0
 10 621 7 628 7 634 c 0xec
407 202 m 0
 407 301 364 389 273 389 c 0
 208 389 139 342 139 311 c 2
 141 105 l 2
 141 73 210 18 266 18 c 0
 354 18 407 100 407 202 c 0
EndSplineSet
EndChar

StartChar: c
Encoding: 99 99 2
Width: 436
VWidth: 0
Flags: W
HStem: -15 42<188.488 323.984> 398 32<187.924 292.401>
VStem: 27 86<109.514 302.565> 313 79<307.461 382.931>
LayerCount: 3
Fore
SplineSet
247 430 m 0
 307 430 354 413 377 380 c 0
 386 368 392 352 392 334 c 0
 392 317 379 302 356 302 c 0
 329 302 319 320 313 346 c 0
 305 384 277 398 239 398 c 0
 170 398 113 326 113 205 c 0
 113 92 185 27 254 27 c 0
 321 27 364 74 373 90 c 0
 378 99 384 108 390 108 c 0
 398 108 412 98 412 89 c 0
 412 83 357 -15 231 -15 c 0
 116 -15 27 73 27 203 c 0
 27 353 144 430 247 430 c 0
EndSplineSet
Layer: 2
SplineSet
113 205 m 4xdc
 113 94 181 27 249 27 c 4
 358 27 373 107 391 107 c 4
 403 107 412 97 412 88 c 4
 412 82 368 -15 228 -15 c 4
 115 -15 26 72 26 204 c 4
 26 346 124 430 240 430 c 4
 334 430 392 388 392 335 c 4
 392 310 373 299 354 299 c 4
 333 299 320 313 318 326 c 4
 314 348 302 398 245 398 c 4
 158 398 113 313 113 205 c 4xdc
EndSplineSet
EndChar

StartChar: d
Encoding: 100 100 3
Width: 542
VWidth: 0
Flags: W
HStem: -14 42<181.501 314.318> 2 26<470.627 514.974> 383 41<180.247 327.793> 624 27<317.009 367.546> 646 20G<436.5 444.5>
VStem: 27 85<106.113 302.656> 377 80<406.393 619.933> 379 70<73.75 311.211>
LayerCount: 3
Fore
SplineSet
226 -14 m 0xa5
 108 -14 27 79 27 197 c 0
 27 324 104 424 241 424 c 0
 299 424 340 402 370 373 c 0
 377 367 379 366 379 376 c 0xa5
 379 538 378 563 377 587 c 0
 376 621 348 624 325 624 c 0
 320 624 317 627 317 637 c 0
 317 649 321 651 326 651 c 0xb6
 379 651 433 666 440 666 c 0x2e
 449 666 457 664 457 651 c 0x36
 457 618 449 453 449 85 c 0
 449 53 473 28 507 28 c 0
 511 28 515 26 515 17 c 0
 515 8 514 2 511 2 c 0x75
 447 0 411 -10 404 -10 c 0
 386 -10 385 4 382 49 c 0
 381 60 378 59 373 52 c 0
 345 17 292 -14 226 -14 c 0xa5
112 210 m 0
 112 124 150 28 249 28 c 0
 365 28 379 107 379 157 c 2
 379 255 l 2
 379 318 355 383 246 383 c 0
 145 383 112 284 112 210 c 0
EndSplineSet
Layer: 2
SplineSet
232 -14 m 4
 99 -14 28 86 28 202 c 4
 28 327 109 424 232 424 c 4
 284 424 336 404 379 366 c 5
 379 542 378 562 377 587 c 4
 376 621 350 624 327 624 c 4
 322 624 317 626 317 636 c 4
 317 648 323 651 328 651 c 4
 387 651 436 666 443 666 c 4
 448 666 454 664 454 655 c 4
 454 616 450 244 450 85 c 4
 450 53 474 32 509 28 c 4
 513 28 517 26 517 17 c 4
 517 8 514 2 511 2 c 4
 473 0 411 -11 402 -11 c 4
 382 -11 384 7 382 62 c 5
 346 19 301 -14 232 -14 c 4
111 196 m 4
 111 111 167 28 248 28 c 4
 333 28 379 92 379 115 c 6
 379 323 l 6
 379 342 325 383 256 383 c 4
 155 383 111 308 111 196 c 4
EndSplineSet
EndChar

StartChar: e
Encoding: 101 101 4
Width: 434
VWidth: 0
Flags: W
HStem: -15 37<192.957 320.491> 269 22<128.695 307.028> 396 29<175.17 267.858>
VStem: 27 86<107.54 289.064> 310 95<275.5 346.041>
LayerCount: 3
Fore
SplineSet
238 -15 m 0
 112 -15 27 69 27 207 c 0
 27 334 111 425 227 425 c 0
 318 425 380 386 401 300 c 0
 403 292 405 286 405 281 c 0
 405 270 398 264 379 264 c 0
 289 264 150 269 136 269 c 0
 114 269 113 237 113 205 c 0
 113 120 160 22 256 22 c 0
 300 22 336 47 358 69 c 0
 375 85 380 100 387 100 c 0
 398 100 407 90 407 84 c 0
 407 67 345 -15 238 -15 c 0
310 314 m 0
 310 342 281 396 221 396 c 0
 157 396 128 327 128 303 c 0
 128 296 128 291 138 291 c 2
 272 294 l 2
 301 295 310 296 310 314 c 0
EndSplineSet
Layer: 2
SplineSet
27 207 m 4
 27 334 111 425 227 425 c 4
 318 425 380 386 401 300 c 4
 403 292 405 286 405 281 c 4
 405 270 398 264 379 264 c 4
 293 264 140 269 130 269 c 4
 108 269 106 228 106 207 c 4
 106 120 159 22 256 22 c 4
 301 22 336 47 358 69 c 4
 375 85 380 100 387 100 c 4
 398 100 407 90 407 84 c 4
 407 63 336 -15 236 -15 c 4
 110 -15 27 92 27 207 c 4
310 314 m 4
 310 342 281 396 221 396 c 4
 160 396 129 328 129 308 c 4
 129 301 132 294 141 294 c 6
 272 294 l 6
 301 294 310 296 310 314 c 4
EndSplineSet
EndChar

StartChar: f
Encoding: 102 102 6
Width: 286
VWidth: 0
Flags: W
HStem: -3 32<21.0015 85.4757 179.727 242.983> 377 31<25.0137 96.9836 169.065 259.968> 638 29<205.426 267.521>
VStem: 97 72<36.3152 377.993 407.007 579.749> 281 70<562.109 631.246>
LayerCount: 3
Fore
SplineSet
251 667 m 0
 312 667 351 635 351 596 c 0
 351 577 340 559 312 559 c 0
 294 559 283 574 281 589 c 0
 279 608 268 638 239 638 c 0
 170 638 169 517 169 450 c 2
 169 424 l 2
 169 416 171 407 189 407 c 0
 212 407 231 408 250 408 c 0
 257 408 260 403 260 391 c 0
 260 381 255 377 250 377 c 0
 238 377 208 378 190 378 c 0
 171 378 169 375 169 357 c 0
 169 312 168 188 168 122 c 0
 168 43 176 29 231 29 c 0
 237 29 243 29 243 12 c 0
 243 -2 239 -3 234 -3 c 0
 219 -3 173 0 135 0 c 2
 122 0 l 2
 81 0 41 -3 33 -3 c 0
 21 -3 21 3 21 13 c 0
 21 21 23 29 34 29 c 0
 90 29 92 48 93 85 c 0
 95 142 97 262 97 361 c 0
 97 369 96 378 76 378 c 0
 59 378 51 377 34 377 c 0
 27 377 25 386 25 391 c 0
 25 400 26 408 36 408 c 0
 50 408 60 407 75 407 c 0
 96 407 97 417 97 425 c 2
 97 442 l 2
 97 491 102 558 129 602 c 0
 149 635 194 667 251 667 c 0
EndSplineSet
Layer: 2
SplineSet
353 597 m 4
 353 577 342 560 315 560 c 4
 289 560 282 583 278 604 c 4
 276 616 266 638 239 638 c 4
 178 638 168 524 168 460 c 6
 168 424 l 6
 168 414 171 405 186 405 c 4
 209 405 230 406 249 406 c 4
 256 406 259 403 259 391 c 4
 259 381 254 378 249 378 c 4
 237 378 205 379 187 379 c 4
 168 379 168 377 168 363 c 6
 168 79 l 6
 168 51 177 29 230 29 c 4
 236 29 241 28 241 12 c 4
 241 -1 236 -3 229 -3 c 4
 218 -3 169 0 134 0 c 6
 122 0 l 6
 92 0 41 -3 33 -3 c 4
 21 -3 21 3 21 13 c 4
 21 21 23 29 34 29 c 4
 90 29 91 49 92 80 c 4
 94 178 97 263 97 362 c 4
 97 370 97 379 86 379 c 4
 69 379 51 378 34 378 c 4
 27 378 25 386 25 391 c 4
 25 400 26 406 36 406 c 4
 50 406 64 405 79 405 c 4
 95 405 97 409 97 417 c 6
 97 440 l 6
 97 579 163 667 268 667 c 4
 315 667 353 634 353 597 c 4
EndSplineSet
EndChar

StartChar: g
Encoding: 103 103 7
Width: 499
VWidth: 0
Flags: W
HStem: -239 39<130.416 322.923> -15 76<96.9252 342.352> 127 31<159.961 260.523> 351 72<406.48 479.816> 393 32<165.359 264.074>
VStem: 25 49<-156.749 -52.9968> 39 83<202.468 350.872> 45 50<47.5 119.526> 303 85<206.615 355.711> 378 58<-156.199 -47.4067>
LayerCount: 3
Fore
SplineSet
485 382 m 0xf240
 485 364 472 351 453 351 c 0
 433 351 419 374 398 374 c 0
 388 374 376 365 376 352 c 0
 376 350 376 348 377 346 c 0
 385 324 388 295 388 284 c 0
 388 206 330 127 208 127 c 0
 197 127 175 132 152 132 c 0
 129 132 95 115 95 92 c 0xf180
 95 63 135 62 163 61 c 0
 215 60 241 58 289 54 c 0
 369 48 436 -5 436 -82 c 0
 436 -183 337 -239 232 -239 c 0
 139 -239 25 -209 25 -105 c 0
 25 -66 63 -27 94 -27 c 0
 100 -27 109 -29 109 -36 c 0
 109 -41 74 -64 74 -109 c 0xf440
 74 -185 184 -200 224 -200 c 0
 301 -200 378 -175 378 -99 c 0
 378 -17 278 -15 202 -15 c 2
 162 -15 l 2
 151 -15 136 -15 112 -14 c 0
 80 -12 45 36 45 59 c 0
 45 108 68 122 99 148 c 0
 107 154 103 162 95 168 c 0xf140
 77 183 39 211 39 273 c 0
 39 364 113 425 201 425 c 0xea
 291 425 340 384 344 384 c 0
 352 384 383 423 436 423 c 0
 461 423 485 408 485 382 c 0xf240
219 393 m 0xea80
 145 393 122 331 122 270 c 0
 122 211 146 158 212 158 c 0
 266 158 303 194 303 274 c 0
 303 338 277 393 219 393 c 0xea80
EndSplineSet
Layer: 2
SplineSet
485 382 m 4xf240
 485 364 472 351 453 351 c 4
 433 351 419 374 398 374 c 4
 388 374 376 365 376 352 c 4
 376 350 376 348 377 346 c 4
 385 324 388 295 388 284 c 4
 388 206 330 127 208 127 c 4
 197 127 175 132 152 132 c 4
 129 132 95 115 95 92 c 4xf180
 95 63 135 62 163 61 c 4
 215 60 241 58 289 54 c 4
 369 48 436 -5 436 -82 c 4
 436 -183 337 -239 232 -239 c 4
 137 -239 25 -200 25 -100 c 4
 25 -65 65 -27 94 -27 c 4
 100 -27 109 -29 109 -36 c 4
 109 -41 71 -62 71 -109 c 4xf440
 71 -184 176 -200 224 -200 c 4
 301 -200 378 -175 378 -99 c 4
 378 -17 278 -15 202 -15 c 6
 162 -15 l 6
 151 -15 136 -15 112 -14 c 4
 80 -12 45 36 45 59 c 4
 45 108 68 122 99 148 c 4
 107 154 103 162 95 168 c 4xf140
 77 183 39 211 39 273 c 4
 39 364 113 425 201 425 c 4xea
 291 425 340 384 344 384 c 4
 352 384 383 423 436 423 c 4
 461 423 485 408 485 382 c 4xf240
219 393 m 4xea80
 145 393 122 331 122 270 c 4
 122 211 146 158 212 158 c 4
 266 158 303 194 303 274 c 4
 303 338 277 393 219 393 c 4xea80
EndSplineSet
EndChar

StartChar: h
Encoding: 104 104 8
Width: 550
VWidth: 0
Flags: W
HStem: -2 31<26.0089 82.0969 178.367 241.996 313.006 373.016 471.06 535.948> 382 41<243.985 350.733> 620 28<31.0029 83.9492> 644 20G<155 164>
VStem: 95 72<36.7188 320.509 359.357 588.441> 385 72<37.6518 347.015>
LayerCount: 3
Fore
SplineSet
385 216 m 0xdc
 385 310 378 382 293 382 c 0
 242 382 166 325 166 254 c 0
 166 196 166 97 167 83 c 0
 170 37 186 29 234 29 c 0
 242 29 242 20 242 12 c 0
 242 -1 237 -2 224 -2 c 0
 214 -2 190 0 147 0 c 2
 122 0 l 2
 85 0 55 -2 40 -2 c 0
 29 -2 26 0 26 13 c 0
 26 26 31 29 37 29 c 0
 83 29 91 50 92 81 c 0
 95 183 95 249 95 351 c 2
 95 545 l 2
 95 554 95 563 94 572 c 0
 90 605 85 620 40 620 c 0
 35 620 31 622 31 634 c 0
 31 644 34 648 40 648 c 0xec
 92 648 149 664 161 664 c 0
 167 664 174 659 174 651 c 0
 174 628 167 627 167 351 c 0
 167 340 169 334 178 346 c 0
 204 381 255 423 324 423 c 0
 420 423 457 348 457 272 c 2
 457 116 l 2
 457 51 463 29 522 29 c 0
 528 29 536 27 536 16 c 0
 536 2 534 -2 523 -2 c 0
 509 -2 483 0 439 0 c 2
 410 0 l 2
 365 0 336 -2 327 -2 c 0
 320 -2 313 -1 313 14 c 0
 313 29 321 29 326 29 c 0
 380 29 382 46 384 121 c 0
 385 154 385 185 385 216 c 0xdc
EndSplineSet
Layer: 2
SplineSet
313 14 m 4
 313 29 321 29 326 29 c 4
 380 29 385 60 385 121 c 4
 385 184 383 280 382 297 c 4
 380 339 359 383 296 383 c 4
 232 383 165 306 165 289 c 6
 165 198 l 6
 165 150 165 99 166 83 c 4
 169 37 184 29 232 29 c 4
 240 29 240 20 240 12 c 4
 240 -1 235 -2 222 -2 c 4
 212 -2 188 0 145 0 c 6
 122 0 l 6
 85 0 55 -2 40 -2 c 4
 29 -2 26 0 26 13 c 4
 26 26 31 29 37 29 c 4
 83 29 91 50 92 81 c 4
 95 183 95 250 95 352 c 6
 95 545 l 6
 95 554 95 563 94 572 c 4
 90 605 85 620 40 620 c 4
 35 620 31 622 31 634 c 4
 31 644 34 648 40 648 c 4
 92 648 152 664 164 664 c 4
 170 664 172 659 172 651 c 4
 172 628 165 483 165 350 c 4
 165 339 167 333 176 345 c 4
 198 372 248 422 318 422 c 4
 402 422 456 359 456 283 c 6
 456 91 l 6
 456 46 472 29 523 29 c 4
 529 29 535 27 535 16 c 4
 535 2 535 -2 524 -2 c 4
 510 -2 482 0 438 0 c 6
 410 0 l 6
 365 0 336 -2 327 -2 c 4
 320 -2 313 -1 313 14 c 4
EndSplineSet
EndChar

StartChar: i
Encoding: 105 105 9
Width: 252
VWidth: 0
Flags: W
HStem: -2 31<16.0089 70.2144 174.348 231.996> 379 25<22.0088 65.6355> 398 20G<141 149.5> 556 104<77.5153 162.485>
VStem: 68 104<565.515 650.485> 86 71<40.276 368.817>
LayerCount: 3
Fore
SplineSet
27 29 m 4xb4
 53 29 80 33 84 88 c 4
 86 110 86 152 86 187 c 6
 86 233 l 6
 86 258 86 288 85 308 c 4
 84 348 78 375 31 379 c 4
 26 379 22 379 22 391 c 4
 22 401 25 404 31 404 c 4xd4
 98 404 136 418 146 418 c 4
 153 418 160 412 160 405 c 4
 160 396 157 359 157 198 c 4
 157 164 157 116 159 83 c 4
 162 37 192 29 224 29 c 4
 232 29 232 20 232 12 c 4
 232 -1 227 -2 214 -2 c 4
 204 -2 180 0 137 0 c 6
 112 0 l 6
 75 0 45 -2 30 -2 c 4
 19 -2 16 0 16 13 c 4
 16 26 21 29 27 29 c 4xb4
68 608 m 0x98
 68 637 91 660 120 660 c 0
 149 660 172 637 172 608 c 0
 172 579 149 556 120 556 c 0
 91 556 68 579 68 608 c 0x98
EndSplineSet
EndChar

StartChar: j
Encoding: 106 106 10
Width: 252
VWidth: 0
Flags: W
HStem: -227 31<-15.3698 74.3218> 376 28<37.0088 91.1406> 398 20G<158 166.5> 556 104<92.5153 177.485>
VStem: -96 71<-190.1 -128.639> 83 104<565.515 650.485> 105 74<-153.08 369.183>
LayerCount: 3
Fore
SplineSet
7 -227 m 0xba
 -61 -227 -96 -197 -96 -159 c 0
 -96 -139 -80 -126 -61 -126 c 0
 -43 -126 -25 -138 -25 -158 c 0
 -25 -175 -12 -196 25 -196 c 0
 97 -196 105 -143 105 -52 c 2
 105 185 l 2
 105 241 105 284 104 317 c 0
 103 357 97 376 45 376 c 0
 40 376 37 379 37 391 c 0
 37 401 40 404 46 404 c 0xda
 113 404 153 418 163 418 c 0
 170 418 180 412 180 405 c 0
 180 401 178 370 178 222 c 0
 178 160 179 76 179 -31 c 0
 179 -133 156 -227 7 -227 c 0xba
83 608 m 0x9c
 83 637 106 660 135 660 c 0
 164 660 187 637 187 608 c 0
 187 579 164 556 135 556 c 0
 106 556 83 579 83 608 c 0x9c
EndSplineSet
Layer: 2
SplineSet
-99 -159 m 4
 -99 -198 -59 -227 13 -227 c 4
 165 -227 179 -126 179 -41 c 4
 179 66 178 160 178 222 c 4
 178 370 180 401 180 405 c 4
 180 412 170 418 163 418 c 4
 153 418 113 404 46 404 c 4
 40 404 37 401 37 391 c 4
 37 379 40 376 45 376 c 4
 97 376 103 357 104 317 c 4
 105 284 105 241 105 185 c 6
 105 -51 l 6
 105 -125 104 -196 40 -196 c 4
 0 -196 -18 -178 -24 -159 c 4
 -30 -140 -40 -129 -67 -129 c 4
 -88 -129 -99 -148 -99 -159 c 4
83 608 m 4
 83 637 106 660 135 660 c 4
 164 660 187 637 187 608 c 4
 187 579 164 556 135 556 c 4
 106 556 83 579 83 608 c 4
EndSplineSet
EndChar

StartChar: k
Encoding: 107 107 11
Width: 502
VWidth: 0
Flags: W
HStem: -2 31<26.0089 76.4972 172.5 224.997 270.009 317.498 429.396 487.974> 379 28<271.024 319.15 396.505 444.999> 626 20<31.0029 74.7961> 639 20G<141 150>
VStem: 89 70<36.4383 202.46 233.481 620.729>
LayerCount: 3
Fore
SplineSet
478 29 m 0xe8
 486 29 488 20 488 12 c 0
 488 -1 484 -2 475 -2 c 0
 465 -2 444 0 403 0 c 2
 362 0 l 2
 325 0 299 -2 284 -2 c 0
 273 -2 270 0 270 13 c 0
 270 26 275 29 281 29 c 0
 307 29 319 36 319 54 c 0
 319 66 245 151 209 189 c 0
 197 201 197 205 188 205 c 0
 184 205 180 202 171 196 c 0
 160 188 159 185 159 180 c 2
 159 172 l 2
 159 145 160 104 161 93 c 0
 165 47 169 29 217 29 c 0
 225 29 225 20 225 12 c 0
 225 -1 224 -2 216 -2 c 0
 206 -2 185 0 142 0 c 2
 117 0 l 2
 80 0 55 -2 40 -2 c 0
 29 -2 26 0 26 13 c 0
 26 26 31 29 37 29 c 0
 76 29 90 53 90 89 c 0
 90 187 89 249 89 351 c 2
 89 577 l 2
 89 598 85 626 40 626 c 0
 35 626 31 627 31 636 c 0
 31 646 34 646 40 646 c 0xe8
 92 646 135 659 147 659 c 0xd8
 153 659 160 654 160 646 c 0
 160 623 159 531 159 255 c 2
 159 234 l 2
 159 220 163 220 177 231 c 0
 211 257 267 298 305 331 c 0
 316 341 322 348 322 356 c 0
 322 371 304 379 277 379 c 0
 273 379 271 385 271 392 c 0
 271 399 273 407 278 407 c 0
 287 407 305 405 357 405 c 2
 376 405 l 2
 409 405 433 407 436 407 c 0
 443 407 445 400 445 393 c 0
 445 387 445 379 437 379 c 0
 420 379 395 365 387 359 c 0
 335 322 285 280 258 258 c 0
 247 250 246 247 257 236 c 0
 294 196 366 104 426 47 c 0
 444 30 464 29 478 29 c 0xe8
EndSplineSet
EndChar

StartChar: l
Encoding: 108 108 12
Width: 254
VWidth: 0
Flags: W
HStem: -2 31<17.0089 78.5657 173.251 229.997> 623 20<31.0029 76.5696> 636 20G<142 153.5>
VStem: 92 68<37.9124 617.149>
LayerCount: 3
Fore
SplineSet
160 172 m 2xd0
 160 145 161 104 162 93 c 0
 166 40 174 29 222 29 c 0
 230 29 230 20 230 12 c 0
 230 -1 229 -2 221 -2 c 0
 211 -2 185 0 142 0 c 2
 117 0 l 2
 80 0 46 -2 31 -2 c 0
 20 -2 17 0 17 13 c 0
 17 26 22 29 28 29 c 0
 67 29 92 40 92 89 c 2
 92 413 l 2
 92 491 92 555 91 577 c 0
 90 598 85 623 40 623 c 0
 35 623 31 624 31 633 c 0
 31 643 34 643 40 643 c 0xd0
 96 643 136 656 148 656 c 0xb0
 159 656 163 651 163 643 c 0
 163 620 160 553 160 255 c 2
 160 172 l 2xd0
EndSplineSet
EndChar

StartChar: m
Encoding: 109 109 13
Width: 844
VWidth: 0
Flags: W
HStem: -2 31<35.0089 92.6672 192.089 256.996 317.006 379.485 478.171 543.967 604.006 663.551 765.5 823.948> 371 25<37.0088 89.01> 386 36<256.936 363.702 548.902 647.503> 392 20G<155.5 162.5>
VStem: 106 72<37.3633 318.028> 392 73<37.2259 317.317> 678 73<38.0789 359.256>
LayerCount: 3
Fore
SplineSet
331 -2 m 0xae
 324 -2 317 -1 317 14 c 0
 317 29 325 29 330 29 c 0
 373 29 390 43 390 81 c 0
 391 125 392 164 392 204 c 0
 392 219 391 235 391 251 c 0
 389 330 387 386 310 386 c 0xae
 226 386 178 313 178 226 c 0
 178 132 178 117 180 83 c 0
 183 37 201 29 249 29 c 0
 257 29 257 20 257 12 c 0
 257 -1 252 -2 239 -2 c 0
 229 -2 198 0 155 0 c 2
 130 0 l 2
 93 0 64 -2 49 -2 c 0
 38 -2 35 0 35 13 c 0
 35 26 40 29 46 29 c 0
 92 29 103 50 104 81 c 0
 105 119 106 165 106 211 c 0
 106 240 106 269 105 295 c 4
 103 343 103 371 46 371 c 4
 41 371 37 372 37 384 c 4
 37 394 40 396 46 396 c 4xce
 121 400 151 412 160 412 c 4x9e
 165 412 171 410 172 402 c 6
 175 366 l 6
 177 345 180 347 188 357 c 4
 201 373 263 422 332 422 c 0
 390 422 435 401 456 359 c 0
 462 348 461 346 470 355 c 0
 486 371 550 420 620 420 c 0
 706 420 751 376 751 303 c 0
 751 239 751 175 751 111 c 0
 751 43 770 29 810 29 c 0
 816 29 824 27 824 16 c 0
 824 2 822 -2 811 -2 c 0
 797 -2 781 0 737 0 c 2
 708 0 l 2
 663 0 627 -2 618 -2 c 0
 611 -2 604 -1 604 14 c 0
 604 29 612 29 617 29 c 0
 667 29 678 48 678 123 c 2
 678 262 l 1
 676 332 669 382 600 382 c 0
 514 382 465 313 465 237 c 0
 465 181 465 93 466 84 c 0
 468 42 484 29 532 29 c 0
 539 29 544 25 544 16 c 0
 544 2 542 -2 531 -2 c 0
 517 -2 497 0 445 0 c 2
 420 0 l 2
 381 0 344 -2 331 -2 c 0xae
EndSplineSet
Layer: 2
SplineSet
331 -2 m 4
 324 -2 317 -1 317 14 c 4
 317 29 325 29 330 29 c 4
 373 29 389 43 390 81 c 4
 390 113 391 143 391 170 c 6
 391 251 l 6
 391 327 387 386 310 386 c 4
 250 386 179 332 179 290 c 4
 179 232 179 97 180 83 c 4
 183 37 201 29 249 29 c 4
 257 29 257 20 257 12 c 4
 257 -1 252 -2 239 -2 c 4
 229 -2 198 0 155 0 c 6
 130 0 l 6
 93 0 63 -2 48 -2 c 4
 37 -2 34 0 34 13 c 4
 34 26 39 29 45 29 c 4
 91 29 102 50 103 81 c 4
 104 107 104 137 104 173 c 6
 104 295 l 6
 104 343 102 371 45 371 c 4
 40 371 36 372 36 384 c 4
 36 394 39 396 45 396 c 4
 120 400 151 412 160 412 c 4
 165 412 171 410 172 402 c 6
 176 366 l 6
 177 356 179 348 189 357 c 4
 205 372 263 422 332 422 c 4
 390 422 431 402 452 366 c 4
 459 354 462 348 475 359 c 4
 491.431122991 373.083819706 549.763534172 420 620 420 c 4
 706 420 752 376 752 303 c 4
 752 239 751 175 750 111 c 4
 750 50 770 29 810 29 c 4
 816 29 824 27 824 16 c 4
 824 2 822 -2 811 -2 c 4
 797 -2 781 0 737 0 c 6
 708 0 l 6
 663 0 627 -2 618 -2 c 4
 611 -2 604 -1 604 14 c 4
 604 29 612 29 617 29 c 4
 667 29 678 48 678 123 c 6
 678 262 l 5
 676 332 669 382 600 382 c 4
 550 382 464 333 464 285 c 4
 464 278 465 256 465 248 c 4
 465 182 465 97 466 84 c 4
 468 42 484 29 532 29 c 4
 539 29 544 25 544 16 c 4
 544 2 542 -2 531 -2 c 4
 517 -2 497 0 445 0 c 6
 420 0 l 6
 381 0 344 -2 331 -2 c 4
EndSplineSet
EndChar

StartChar: n
Encoding: 110 110 14
Width: 550
VWidth: 0
Flags: W
HStem: -2 31<35.0089 92.6672 192.089 256.996 317.006 379.485 479.124 528.967> 371 25<37.0088 89.01> 379 41<251.165 361.923> 392 20G<155.5 162.5>
VStem: 106 72<37.3633 316.865> 392 74<37.1425 347.233>
LayerCount: 3
Fore
SplineSet
466 274 m 0xac
 466 218 466 93 467 84 c 0
 469 42 489 29 517 29 c 0
 524 29 529 25 529 16 c 0
 529 2 527 -2 516 -2 c 0
 502 -2 493 0 441 0 c 2
 415 0 l 2
 376 0 344 -2 331 -2 c 0
 324 -2 317 -1 317 14 c 0
 317 29 325 29 330 29 c 0
 373 29 390 43 390 81 c 0
 391 129 392 170 392 215 c 0
 392 296 390 379 309 379 c 0xac
 214 379 178 302 178 226 c 0
 178 132 178 117 180 83 c 0
 183 37 201 29 249 29 c 0
 257 29 257 20 257 12 c 0
 257 -1 252 -2 239 -2 c 0
 229 -2 198 0 155 0 c 2
 130 0 l 2
 93 0 64 -2 49 -2 c 0
 38 -2 35 0 35 13 c 0
 35 26 40 29 46 29 c 0
 92 29 103 50 104 81 c 0
 105 119 106 165 106 211 c 0
 106 240 106 269 105 295 c 0
 103 343 103 371 46 371 c 0
 41 371 37 372 37 384 c 0
 37 394 40 396 46 396 c 0xcc
 121 400 151 412 160 412 c 0x9c
 165 412 171 410 172 402 c 2
 175 359 l 2
 176 343 181 342 188 352 c 0
 200 369 258 420 327 420 c 0
 414 420 466 370 466 274 c 0xac
EndSplineSet
EndChar

StartChar: o
Encoding: 111 111 15
Width: 496
VWidth: 0
Flags: W
HStem: -14 31<185.734 295.818> 395 28<184.403 306.11>
VStem: 27 80<101.784 310.694> 382 82<107.115 309.858>
LayerCount: 3
Fore
SplineSet
249 423 m 0
 394 423 464 327 464 206 c 0
 464 88 388 -14 244 -14 c 0
 100 -14 27 85 27 209 c 0
 27 326 100 423 249 423 c 0
246 395 m 0
 134 395 107 299 107 208 c 0
 107 120 149 17 240 17 c 0
 330 17 382 117 382 205 c 0
 382 324 339 395 246 395 c 0
EndSplineSet
EndChar

StartChar: p
Encoding: 112 112 16
Width: 538
VWidth: 0
Flags: W
HStem: -229 31<25.0029 81.0709 176.899 237.997> -8 38<217.56 350.44> 385 25<25.0088 75.7838> 389 35<226.339 353.083>
VStem: 92 72<-190.476 30 75.2148 341.207> 425 83<112.129 310.034>
LayerCount: 3
Fore
SplineSet
168 371 m 0xec
 208 399 237 424 321 424 c 0xdc
 436 424 508 320 508 211 c 0
 508 100 442 -8 309 -8 c 0
 236 -8 212 13 175 36 c 0
 166 41 164 39 164 30 c 2
 164 -41 l 2
 164 -79 164 -116 167 -152 c 4
 170 -198 200 -198 230 -198 c 4
 238 -198 238 -207 238 -215 c 4
 238 -228 234 -229 224 -229 c 4
 214 -229 188 -227 145 -227 c 6
 120 -227 l 6
 83 -227 53 -229 38 -229 c 4
 28 -229 25 -227 25 -214 c 4
 25 -201 29 -198 35 -198 c 4
 65 -198 92 -194 92 -139 c 4
 92 37 90 140 90 315 c 0
 90 359 89 385 34 385 c 0
 29 385 25 386 25 398 c 0
 25 408 28 410 34 410 c 0
 109 414 129 420 138 420 c 0
 144 420 153 420 154 410 c 2
 157 377 l 2
 159 365 163 367 168 371 c 0xec
288 389 m 0
 225 389 167 351 163 277 c 0
 162 262 161 240 161 217 c 0
 161 189 162 160 163 145 c 0
 166 69 217 30 285 30 c 0
 381 30 425 123 425 219 c 0
 425 299 386 389 288 389 c 0
EndSplineSet
EndChar

StartChar: q
Encoding: 113 113 17
Width: 542
VWidth: 0
Flags: W
HStem: -234 31<300.003 366.694 463.486 518.997> -10 36<191.705 322.381> 389 35<194.52 316.61> 392 20G<437.5 443.5>
VStem: 29 82<111.285 301.965> 378 70<-193.125 25.0033 67.328 348.697>
LayerCount: 3
Fore
SplineSet
450 -154 m 0xdc
 455 -190 472 -203 511 -203 c 0
 519 -203 519 -212 519 -220 c 0
 519 -233 515 -234 505 -234 c 0
 495 -234 468 -232 425 -232 c 2
 400 -232 l 2
 363 -232 328 -234 313 -234 c 0
 303 -234 300 -232 300 -219 c 0
 300 -206 304 -203 310 -203 c 0
 352 -203 378 -192 378 -157 c 2
 378 17 l 2
 378 32 373 36 357 25 c 0
 334 9 283 -10 242 -10 c 0
 84 -10 29 118 29 206 c 0
 29 341 127 424 243 424 c 0xec
 307 424 360 385 380 364 c 0
 387 356 392 356 398 365 c 2
 422 397 l 2
 428 405 434 412 441 412 c 0
 446 412 450 407 450 401 c 16
 450 272 448 291 448 116 c 2
 448 -55 l 2
 448 -106 448 -142 450 -154 c 0xdc
111 207 m 0
 111 117 164 26 252 26 c 0
 349 26 379 83 379 137 c 2
 379 206 l 2
 379 242 379 274 376 303 c 0
 371 357 315 389 258 389 c 0
 160 389 111 292 111 207 c 0
EndSplineSet
EndChar

StartChar: r
Encoding: 114 114 18
Width: 376
VWidth: 0
Flags: W
HStem: -2 31<21.0089 74.7741 173.231 236.996> 369 50<211.222 304.5> 372 24<18.0198 64.1521>
VStem: 86 75<36.2159 322.441>
LayerCount: 3
Fore
SplineSet
326 314 m 0xd0
 274 314 294 369 249 369 c 0xd0
 196 369 161 294 161 257 c 2
 161 172 l 2
 161 142 161 111 162 83 c 0
 164 37 182 29 229 29 c 0
 237 29 237 20 237 12 c 0
 237 0 232 -2 224 -2 c 0
 214 -2 184 0 141 0 c 2
 112 0 l 2
 75 0 50 -2 35 -2 c 0
 24 -2 21 0 21 13 c 0
 21 26 26 29 32 29 c 0
 52 29 83 31 84 76 c 0
 85 131 86 219 86 281 c 0
 86 330 85 368 27 372 c 0
 22 372 18 374 18 383 c 0
 18 393 21 396 27 396 c 0xb0
 62 396 119 413 129 413 c 0
 136 413 142 409 143 401 c 0
 143 397 146 374 147 341 c 0
 148 322 150 325 158 338 c 0
 194 396 231 419 291 419 c 0
 318 419 362 394 362 356 c 0
 362 328 346 314 326 314 c 0xd0
EndSplineSet
Layer: 2
SplineSet
32 29 m 0
 52 29 83 31 84 76 c 0
 85 131 86 219 86 281 c 0
 86 330 85 367 27 371 c 0
 22 371 18 373 18 382 c 0
 18 392 21 395 27 395 c 0
 62 395 119 412 129 412 c 0
 136 412 143 407 143 400 c 0
 143 396 144 372 147 339 c 0
 148 324 149 318 160 333 c 0
 203 394 232 418 291 418 c 0
 318 418 361 393 361 355 c 0
 361 327 346 314 326 314 c 0
 278 314 291 374 256 374 c 4
 205 374 161 294 161 252 c 0
 161 203 161 138 162 83 c 0
 163 37 182 29 229 29 c 0
 237 29 237 20 237 12 c 0
 237 0 232 -2 224 -2 c 0
 214 -2 184 0 141 0 c 2
 112 0 l 2
 75 0 50 -2 35 -2 c 0
 24 -2 21 0 21 13 c 0
 21 26 26 29 32 29 c 0
EndSplineSet
EndChar

StartChar: s
Encoding: 115 115 19
Width: 359
VWidth: 0
Flags: W
HStem: -16 34<127.962 231.183> 391 33<124.982 221.605>
VStem: 39 27<89.0654 129.994> 44 57<284.952 372.935> 258 61<42.2963 136.191> 266 27<282.396 334.316>
LayerCount: 3
Fore
SplineSet
274 424 m 0xd8
 288 424 294 419 294 413 c 0
 294 403 291 387 291 341 c 0
 291 328 293 294 293 290 c 0
 293 284 287 283 276 282 c 0
 272 282 267 286 266 290 c 0
 258 342 231 391 169 391 c 0
 124 391 101 354 101 328 c 0xd4
 101 228 319 270 319 117 c 0
 319 45 268 -16 183 -16 c 0
 149 -16 122 -9 103 -3 c 0
 95 0 86 3 84 3 c 0
 71 3 77 -14 57 -14 c 0
 49 -14 38 -14 38 -3 c 0
 38 39 39 82 39 123 c 0
 39 128 46 130 53 130 c 0
 59 130 65 128 66 124 c 0xe8
 78 75 121 18 182 18 c 0
 221 18 258 45 258 86 c 0
 258 198 44 157 44 305 c 0
 44 372 94 424 168 424 c 0
 221 424 249 409 256 409 c 0
 268 409 258 424 274 424 c 0xd8
EndSplineSet
Layer: 2
SplineSet
159 426 m 4
 215 426 242 395 250 395 c 4
 260 395 260 411 264 421 c 4
 265 424 268 426 271 426 c 4
 282 426 285 423 285 418 c 4
 285 413 284 401 283 388 c 4
 282 370 282 355 282 338 c 4
 282 325 282 312 283 295 c 4
 283 288 262 285 260 294 c 4
 246 352 212 400 154 400 c 4
 122 400 96 374 96 342 c 4
 96 238 317 258 317 114 c 4
 317 44 268 -10 189 -10 c 4
 138 -10 105 20 86 20 c 4
 75 20 75 8 72 -3 c 4
 71 -8 64 -9 58 -9 c 4
 50 -9 43 -7 43 0 c 4
 43 42 44 84 44 125 c 4
 44 131 64 133 66 125 c 4
 79 74 124 17 184 17 c 4
 223 17 262 40 262 83 c 4
 262 194 43 164 43 313 c 4
 43 375 100 426 159 426 c 4
EndSplineSet
EndChar

StartChar: t
Encoding: 116 116 20
Width: 304
VWidth: 0
Flags: W
LayerCount: 3
Fore
SplineSet
28 412 m 0xe0
 117 412 121 454 133 516 c 0
 134 521 138 526 147 526 c 0
 153 526 161 524 161 512 c 2
 161 454 l 2xd0
 161 435 161 411 180 411 c 2
 266 411 l 2
 278 411 278 402 278 396 c 0
 278 390 278 382 265 382 c 2
 184 382 l 2
 167 382 163 363 162 346 c 0
 160 297 159 215 159 157 c 0
 159 101 161 29 212 29 c 0
 251 29 271 68 280 68 c 0
 287 68 296 58 296 52 c 0
 296 36 241 -13 184 -13 c 0
 119 -13 84 31 84 138 c 0
 84 221 88 274 88 359 c 0
 88 372 83 387 70 387 c 2
 28 387 l 2
 24 387 20 390 20 398 c 0
 20 408 23 412 28 412 c 0xe0
EndSplineSet
EndChar

StartChar: u
Encoding: 117 117 21
Width: 544
VWidth: 0
Flags: W
HStem: -16 40<192.692 307.226 468.938 517.518> 377 26<19.0015 71.3351 318.232 365.876>
VStem: 85 77<54.8838 369.327> 380 75<38.4558 40.2635 81.857 368.028>
LayerCount: 3
Fore
SplineSet
246 24 m 0
 322 24 375 83 379 136 c 0
 380 148 380 158 380 171 c 2
 380 309 l 2
 380 360 371 371 331 373 c 0
 319 374 318 375 318 386 c 0
 318 399 323 401 332 401 c 0
 371 401 428 407 440 407 c 0
 450 407 456 403 456 387 c 0
 456 372 455 334 455 124 c 0
 455 101 456 77 460 61 c 0
 467 32 497 28 510 28 c 0
 518 28 522 24 522 14 c 0
 522 3 519 4 510 3 c 0
 452 -3 417 -11 410 -11 c 0
 392 -11 391 13 386 58 c 0
 384 72 383 69 373 56 c 0
 348 23 291 -16 228 -16 c 0
 117 -16 85 42 85 156 c 0
 85 192 86 239 86 280 c 0
 86 305 86 328 82 347 c 0
 78 369 50 377 27 377 c 0
 20 377 19 382 19 390 c 0
 19 398 21 403 27 403 c 0
 108 403 123 407 140 407 c 0
 155 407 163 403 163 388 c 0
 163 335 162 353 162 135 c 0
 162 97 170 24 246 24 c 0
EndSplineSet
Layer: 2
SplineSet
27 403 m 4
 79 403 123 407 140 407 c 4
 155 407 163 403 163 388 c 4
 163 335 162 337 162 119 c 4
 162 99 170 24 246 24 c 4
 312 24 361 64 375 125 c 4
 379 142 379 161 379 181 c 6
 379 216 l 6
 379 249 379 278 377 314 c 4
 375 356 370 364 331 373 c 4
 319 376 318 375 318 386 c 4
 318 399 323 401 332 401 c 4
 371 401 426 407 438 407 c 4
 448 407 456 404 456 382 c 6
 456 164 l 6
 456 123 456 84 461 59 c 4
 467 30 497 28 510 28 c 4
 518 28 522 24 522 14 c 4
 522 3 519 2 505 1 c 4
 463 -3 419 -12 412 -12 c 4
 391 -12 394 9 388 49 c 4
 386 60 385 64 383 64 c 4
 381 64 378 61 373 55 c 4
 354 33 305 -16 230 -16 c 4
 104.181883463 -16 86 54 86 156 c 6
 86 314 l 6
 86 360 71 377 27 377 c 4
 23 377 19 382 19 390 c 4
 19 398 21 403 27 403 c 4
EndSplineSet
EndChar

StartChar: v
Encoding: 118 118 22
Width: 493
VWidth: 0
Flags: W
HStem: -14 21G<240 249.5> 379 28<148.858 199.976 327.024 370.121 447.793 481>
VStem: 379 102<325.5 396.5>
LayerCount: 3
Fore
SplineSet
146 355 m 0
 146 349 150 341 156 325 c 0
 178 270 228 165 260 101 c 0
 267 88 271 86 277 100 c 0
 313 184 379 306 379 345 c 0
 379 366 357 379 333 379 c 0
 329 379 327 385 327 392 c 0
 327 399 329 407 334 407 c 0
 343 407 357 405 399 405 c 2
 426 405 l 2
 459 405 469 407 472 407 c 0
 481 407 481 400 481 393 c 0
 481 384 481 382 473 379 c 0
 449 371 431 355 405 301 c 0
 360 208 313 103 264 -4 c 0
 261 -11 254 -14 245 -14 c 0
 235 -14 230 -11 226 -4 c 0
 184 75 107 242 51 352 c 0
 46 361 38 376 26 377 c 0
 18 378 17 387 17 393 c 0
 17 400 20 407 27 407 c 0
 30 407 47 405 80 405 c 2
 117 405 l 2
 159 405 184 407 193 407 c 0
 198 407 200 399 200 392 c 0
 200 385 198 379 194 379 c 0
 167 379 146 374 146 355 c 0
EndSplineSet
EndChar

StartChar: w
Encoding: 119 119 23
Width: 723
VWidth: 0
Flags: W
HStem: -16 21G<215 226.5 482.5 494> 379 28<14.0022 48.2004 153.253 184.976 562.024 599.83 672.002 706>
VStem: 14 138<335.5 396.5> 606 100<336 396.5>
DStem2: 250 109 242 -4 0.370201 0.928952<2.35967 183.399> 410 367 364 267 0.367537 -0.930009<74.9924 268.154>
LayerCount: 3
Fore
SplineSet
152 348 m 0
 152 323 212 169 235 110 c 0
 240 96 244 95 250 109 c 0
 282 183 333 326 352 368 c 0
 367 402 366 402 380 402 c 0
 394 402 398 402 410 367 c 0
 428 312 479 178 506 113 c 0
 512 99 515 98 521 112 c 0
 555 197 606 327 606 345 c 0
 606 366 592 379 568 379 c 0
 564 379 562 385 562 392 c 0
 562 399 564 407 569 407 c 0
 578 407 582 405 624 405 c 2
 651 405 l 2
 684 405 694 407 697 407 c 0
 706 407 706 400 706 393 c 0
 706 384 706 382 698 379 c 0
 674 371 653 356 630 301 c 0
 592 210 558 103 509 -4 c 0
 506 -11 500 -16 488 -16 c 0
 477 -16 472 -12 469 -5 c 0
 447 47 404 165 364 267 c 0
 357 285 355 290 348 272 c 0
 314 187 279 90 242 -4 c 0
 239 -11 231 -16 222 -16 c 0
 208 -16 205 -11 202 -4 c 0
 168 76 69 333 57 352 c 0
 52 360 45 377 23 377 c 0
 15 377 14 387 14 393 c 0
 14 400 17 407 24 407 c 0
 27 407 57 405 90 405 c 2
 107 405 l 2
 149 405 169 407 178 407 c 0
 183 407 185 399 185 392 c 0
 185 385 183 379 179 379 c 0
 152 379 152 367 152 348 c 0
EndSplineSet
EndChar

StartChar: x
Encoding: 120 120 24
Width: 400
VWidth: 0
Flags: W
HStem: 154 144<155 257>
VStem: 134 144<175 277>
LayerCount: 3
Fore
SplineSet
134 226 m 4
 134 266 166 298 206 298 c 4
 246 298 278 266 278 226 c 4
 278 186 246 154 206 154 c 4
 166 154 134 186 134 226 c 4
EndSplineSet
EndChar

StartChar: y
Encoding: 121 121 25
Width: 400
VWidth: 0
Flags: W
HStem: 154 144<155 257>
VStem: 134 144<175 277>
LayerCount: 3
Fore
SplineSet
134 226 m 4
 134 266 166 298 206 298 c 4
 246 298 278 266 278 226 c 4
 278 186 246 154 206 154 c 4
 166 154 134 186 134 226 c 4
EndSplineSet
EndChar

StartChar: z
Encoding: 122 122 26
Width: 400
VWidth: 0
Flags: W
HStem: 154 144<155 257>
VStem: 134 144<175 277>
LayerCount: 3
Fore
SplineSet
134 226 m 4
 134 266 166 298 206 298 c 4
 246 298 278 266 278 226 c 4
 278 186 246 154 206 154 c 4
 166 154 134 186 134 226 c 4
EndSplineSet
EndChar

